<svg width="503" height="349" viewBox="0 0 503 349" fill="none" xmlns="http://www.w3.org/2000/svg">
<path d="M251.103 45.5637C251.103 45.5637 218.551 68.3332 251.103 91.115C283.655 113.897 251.103 136.679 251.103 136.679" fill="#FEFAE0"/>
<path d="M275.453 0C275.453 0 308.005 22.7818 275.453 45.5637C242.901 68.3455 275.453 91.115 275.453 91.115" fill="#FEFAE0"/>
<path d="M226.386 0C226.386 0 258.938 22.7818 226.386 45.5637C193.834 68.3455 226.386 91.115 226.386 91.115" fill="#FEFAE0"/>
<path d="M35.7793 283.375C23.8488 283.375 14.905 279.954 8.94787 273.11C2.99077 266.266 0.00814925 256.034 0 242.413C0 229.451 3.09264 219.412 9.27792 212.297C15.4632 205.181 24.1462 201.615 35.327 201.598C40.3443 201.482 45.3334 202.39 49.9956 204.27C53.8228 205.798 57.1157 208.441 59.4569 211.864L50.6557 221.61C48.9941 219.284 46.8006 217.4 44.2626 216.118C41.6973 214.808 38.8607 214.134 35.9871 214.152C29.0032 214.152 23.5839 216.564 19.7293 221.387C15.8747 226.211 13.9515 233.013 13.9597 241.794C13.9597 251.433 15.8951 258.672 19.766 263.512C23.6369 268.352 29.4147 270.768 37.0994 270.76C40.2227 270.805 43.3393 270.456 46.3774 269.721C49.0544 269.041 51.2669 268.484 52.9416 267.965L57.8311 280.011C56.242 280.49 53.4427 281.17 49.4333 282.052C44.9412 282.982 40.3641 283.425 35.7793 283.375ZM30.6819 254.063V241.695H57.4522V254.063H30.6819ZM44.9105 280.036V241.695H57.8189V280.036H44.9105Z" fill="#FEFAE0"/>
<path d="M103.72 283.375C84.0065 283.375 74.15 269.927 74.15 243.031C74.15 215.409 84.0065 201.598 103.72 201.598C123.433 201.598 133.273 215.409 133.24 243.031C133.24 269.919 123.4 283.367 103.72 283.375ZM91.0923 193.497C89.956 193.514 88.8281 193.297 87.7773 192.859C86.7265 192.421 85.7749 191.772 84.9803 190.949C84.1672 190.143 83.5212 189.181 83.0802 188.119C82.6392 187.057 82.4121 185.917 82.4121 184.765C82.4121 183.614 82.6392 182.473 83.0802 181.412C83.5212 180.35 84.1672 179.388 84.9803 178.581C86.612 176.962 88.8066 176.055 91.0923 176.055C93.378 176.055 95.5725 176.962 97.2042 178.581C98.8195 180.225 99.7263 182.448 99.7263 184.765C99.7263 187.083 98.8195 189.306 97.2042 190.949C96.4101 191.772 95.4585 192.422 94.4077 192.86C93.3568 193.298 92.2287 193.515 91.0923 193.497ZM103.72 270.76C114.208 270.76 119.452 261.517 119.452 243.031C119.452 223.753 114.208 214.115 103.72 214.115C93.2315 214.115 87.9956 223.753 88.0119 243.031C88.0119 261.525 93.2478 270.768 103.72 270.76ZM116.347 193.497C115.21 193.514 114.083 193.297 113.032 192.859C111.981 192.421 111.029 191.772 110.235 190.949C109.422 190.143 108.776 189.181 108.335 188.119C107.894 187.057 107.667 185.917 107.667 184.765C107.667 183.614 107.894 182.473 108.335 181.412C108.776 180.35 109.422 179.388 110.235 178.581C111.867 176.962 114.061 176.055 116.347 176.055C118.633 176.055 120.827 176.962 122.459 178.581C124.074 180.225 124.981 182.448 124.981 184.765C124.981 187.083 124.074 189.306 122.459 190.949C121.664 191.772 120.713 192.421 119.662 192.859C118.611 193.297 117.483 193.514 116.347 193.497Z" fill="#FEFAE0"/>
<path d="M151.845 282.25V202.687H165.022V282.25H151.845ZM159.375 256.92L160.377 243.649C165.286 243.779 170.141 242.588 174.447 240.199C178.375 237.934 181.724 234.77 184.226 230.96C186.856 226.952 188.787 222.518 189.934 217.85C191.174 212.914 191.795 207.841 191.78 202.748H205.227C205.255 209.65 204.22 216.515 202.158 223.094C200.193 229.366 197.138 235.234 193.137 240.421C189.265 245.469 184.34 249.591 178.713 252.493C172.711 255.516 166.079 257.035 159.375 256.92ZM192.832 282.25L175.388 245.604L187.514 239.939L209.028 282.25H192.832Z" fill="#FEFAE0"/>
<path d="M250.919 283.375C231.198 283.375 221.342 269.927 221.35 243.031C221.35 215.393 231.206 201.569 250.919 201.561C270.632 201.553 280.489 215.376 280.489 243.031C280.489 269.919 270.632 283.367 250.919 283.375ZM250.919 270.76C261.407 270.76 266.652 261.517 266.652 243.031C266.652 223.753 261.407 214.115 250.919 214.115C240.431 214.115 235.187 223.753 235.187 243.031C235.187 261.525 240.431 270.768 250.919 270.76Z" fill="#FEFAE0"/>
<path d="M295.17 215.129V202.687H353.844V215.129H295.17ZM317.931 282.25V202.687H331.108V282.25H317.931Z" fill="#FEFAE0"/>
<path d="M368.757 215.129V202.687H427.432V215.129H368.757ZM391.518 282.25V202.687H404.708V282.25H391.518Z" fill="#FEFAE0"/>
<path d="M471.695 202.687C454.496 202.687 440.548 220.385 440.377 242.264V282.238H450.829C450.829 265.516 458.591 253.247 471.695 253.247C484.799 253.247 492.549 265.516 492.549 282.238H502.988V242.277C502.841 220.385 488.882 202.687 471.695 202.687ZM450.853 242.66C450.853 242.487 450.853 242.314 450.853 242.153C451.061 227.707 460.302 215.129 471.634 215.129C482.965 215.129 492.243 227.707 492.414 242.153C492.414 242.314 492.414 242.487 492.414 242.66H450.853Z" fill="#FEFAE0"/>
<path d="M79.8463 349C78.564 349.01 77.2834 348.902 76.0202 348.678C74.8624 348.479 73.7278 348.159 72.6342 347.726L72.952 345.351C74.1427 345.819 75.3692 346.187 76.6192 346.452C77.7727 346.7 78.9482 346.828 80.1275 346.836C81.7179 346.947 83.3052 346.577 84.687 345.772C85.1837 345.406 85.5817 344.92 85.8444 344.358C86.1072 343.796 86.2261 343.177 86.1905 342.556C86.1986 341.677 85.947 340.815 85.4678 340.081C84.9887 339.347 84.3039 338.775 83.5012 338.438L77.5238 335.333C76.3076 334.762 75.2371 333.915 74.3945 332.86C73.6557 331.863 73.2722 330.642 73.3065 329.397C73.2483 328.482 73.3876 327.566 73.7148 326.712C74.042 325.857 74.5492 325.085 75.2012 324.449C76.7984 323.231 78.7811 322.646 80.7753 322.805C82.2464 322.783 83.7088 323.035 85.0903 323.547C86.4236 324.069 87.6379 324.86 88.6597 325.872L87.0584 327.517C86.1065 326.724 85.0437 326.078 83.9046 325.6C82.9152 325.191 81.8564 324.981 80.7875 324.981C79.4297 324.885 78.0799 325.26 76.9615 326.045C76.5179 326.448 76.1715 326.949 75.949 327.508C75.7265 328.068 75.6338 328.672 75.678 329.273C75.6456 330.092 75.8963 330.897 76.3869 331.549C76.9498 332.227 77.6501 332.776 78.4406 333.157L83.8924 335.939C85.2557 336.579 86.4527 337.532 87.3884 338.722C88.1924 339.82 88.6214 341.153 88.6108 342.519C88.6822 343.46 88.5219 344.405 88.1443 345.268C87.7668 346.132 87.1837 346.887 86.4472 347.466C84.4629 348.672 82.1516 349.209 79.8463 349Z" fill="#FEFAE0"/>
<path d="M94.5027 348.641V323.126H96.7519V348.641H94.5027ZM96.3363 340.145V337.955H101.874C103.699 338.078 105.5 337.479 106.898 336.286C107.508 335.664 107.98 334.917 108.284 334.096C108.587 333.275 108.715 332.399 108.658 331.524C108.711 330.674 108.581 329.822 108.277 329.028C107.973 328.234 107.503 327.516 106.898 326.923C105.478 325.776 103.687 325.203 101.874 325.315H96.3975V323.126H101.874C104.315 322.955 106.729 323.723 108.634 325.278C109.438 326.08 110.063 327.047 110.468 328.113C110.873 329.18 111.048 330.322 110.981 331.462C111.054 332.633 110.883 333.806 110.478 334.906C110.074 336.005 109.445 337.006 108.634 337.844C106.758 339.462 104.334 340.279 101.874 340.12L96.3363 340.145Z" fill="#FEFAE0"/>
<path d="M115.821 348.641V323.126H118.07V348.641H115.821ZM115.821 325.315V323.126H131.944V325.278L115.821 325.315ZM115.821 336.966V334.777H128.754V336.966H115.821ZM115.821 348.641V346.452H131.944V348.641H115.821Z" fill="#FEFAE0"/>
<path d="M147.163 349C139.527 349 135.705 344.618 135.697 335.853C135.697 331.697 136.663 328.432 138.594 326.193C139.609 325.036 140.869 324.126 142.282 323.532C143.694 322.939 145.221 322.677 146.748 322.767C148.248 322.73 149.738 323.013 151.124 323.596C152.261 324.067 153.211 324.907 153.825 325.983L152.199 327.678C151.589 326.825 150.784 326.133 149.852 325.662C148.896 325.179 147.84 324.933 146.772 324.944C145.576 324.896 144.386 325.122 143.289 325.607C142.192 326.091 141.218 326.82 140.44 327.739C138.698 329.993 137.829 332.812 137.995 335.667C137.995 343.088 141.157 346.798 147.481 346.798C149.303 346.788 151.103 346.388 152.762 345.624L153.324 347.751C151.371 348.57 149.278 348.994 147.163 349Z" fill="#FEFAE0"/>
<path d="M158.592 325.278V323.089H173.371V325.278H158.592ZM158.592 348.604V346.415H173.371V348.604H158.592ZM164.839 348.604V323.126H167.076V348.641L164.839 348.604Z" fill="#FEFAE0"/>
<path d="M177.723 348.641L185.681 323.126H188.908L196.865 348.641H194.543L187.404 325.08H187.184L180.045 348.641H177.723ZM180.815 341.814V339.625H193.602V341.814H180.815Z" fill="#FEFAE0"/>
<path d="M201.083 348.641V323.126H203.332V348.641H201.083ZM201.083 348.641V346.452H217.206V348.641H201.083Z" fill="#FEFAE0"/>
<path d="M222.536 325.278V323.089H237.314V325.278H222.536ZM222.536 348.604V346.415H237.314V348.604H222.536ZM228.794 348.604V323.126H231.031V348.641L228.794 348.604Z" fill="#FEFAE0"/>
<path d="M242.289 325.278V323.089H260.197V325.278H242.289ZM250.125 348.604V323.126H252.362V348.641L250.125 348.604Z" fill="#FEFAE0"/>
<path d="M271.761 340.12L262.63 323.114H265.075L272.409 337.127H272.629L279.963 323.114H282.408L273.362 340.12H271.761ZM271.443 348.629V337.362H273.68V348.629H271.443Z" fill="#FEFAE0"/>
<path d="M317.698 349C310.046 349 306.22 344.618 306.22 335.853C306.22 331.697 307.186 328.432 309.117 326.193C310.133 325.037 311.394 324.128 312.806 323.535C314.218 322.942 315.744 322.679 317.27 322.767C318.77 322.73 320.261 323.013 321.647 323.596C322.785 324.071 323.738 324.909 324.36 325.983L322.71 327.678C322.102 326.822 321.296 326.13 320.363 325.662C319.411 325.181 318.359 324.935 317.295 324.944C316.098 324.896 314.905 325.122 313.806 325.606C312.708 326.09 311.731 326.82 310.951 327.739C309.231 330.001 308.384 332.819 308.567 335.667C308.567 343.088 311.729 346.798 318.053 346.798C319.875 346.788 321.675 346.388 323.334 345.624L323.896 347.751C321.931 348.575 319.825 349 317.698 349Z" fill="#FEFAE0"/>
<path d="M336.499 349C330.485 349 327.477 344.688 327.477 336.063C327.477 327.199 330.485 322.767 336.499 322.767C342.513 322.767 345.524 327.199 345.532 336.063C345.532 344.696 342.521 349.008 336.499 349ZM336.499 346.935C340.973 346.935 343.206 343.311 343.197 336.063C343.197 328.642 340.964 324.932 336.499 324.932C332.033 324.932 329.804 328.642 329.812 336.063C329.812 343.311 332.041 346.935 336.499 346.935Z" fill="#FEFAE0"/>
<path d="M350.642 348.641V323.126H352.903V348.641H350.642ZM350.642 325.315V323.126H366.777V325.278L350.642 325.315ZM350.642 338.042V335.853H364.088V338.042H350.642Z" fill="#FEFAE0"/>
<path d="M371.96 348.641V323.126H374.209V348.641H371.96ZM371.96 325.315V323.126H388.083V325.278L371.96 325.315ZM371.96 338.042V335.853H385.406V338.042H371.96Z" fill="#FEFAE0"/>
<path d="M392.924 348.641V323.126H395.173V348.641H392.924ZM392.924 325.315V323.126H409.047V325.278L392.924 325.315ZM392.924 336.966V334.777H405.832V336.966H392.924ZM392.924 348.641V346.452H409.047V348.641H392.924Z" fill="#FEFAE0"/>
<path d="M414.23 348.641V323.126H416.492V348.641H414.23ZM414.23 325.315V323.126H430.366V325.278L414.23 325.315ZM414.23 336.966V334.777H427.163V336.966H414.23ZM414.23 348.641V346.452H430.366V348.641H414.23Z" fill="#FEFAE0"/>
</svg>
