<svg width="1920" height="1080" viewBox="0 0 1920 1080" fill="none" xmlns="http://www.w3.org/2000/svg">
<g filter="url(#filter0_b_2_195)">
<g clip-path="url(#clip0_2_195)">
<path d="M144 90.0045C155.82 90.0045 167.523 87.6765 178.443 83.1533C189.363 78.6302 199.285 72.0005 207.643 63.6428C216 55.2851 222.63 45.3631 227.153 34.4432C231.676 23.5234 234.005 11.8196 234.005 0V179.995C234.005 168.177 231.676 156.473 227.153 145.554C222.63 134.635 216 124.714 207.642 116.357C199.284 108.001 189.362 101.372 178.442 96.8508C167.522 92.3291 155.819 90.0027 144 90.0045Z" fill="#425330" fill-opacity="0.52"/>
<path d="M53.9955 179.995V0C53.9991 23.8696 63.4828 46.7605 80.3611 63.6388C97.2395 80.5172 120.13 90.0009 144 90.0045C120.133 90.0081 97.2439 99.49 80.3659 116.365C63.488 133.241 54.0026 156.128 53.9955 179.995Z" fill="#425330" fill-opacity="0.52"/>
<path d="M98.8155 179.996C98.8155 168.012 103.576 156.519 112.05 148.045C120.523 139.572 132.016 134.811 144 134.811C155.984 134.811 167.477 139.572 175.95 148.045C184.424 156.519 189.184 168.012 189.184 179.996H98.8155Z" fill="#425330" fill-opacity="0.52"/>
<path d="M53.9955 0V90.0045H32.1795C32.36 80.9375 30.7299 71.9255 27.3849 63.4962C24.0398 55.0668 19.0469 47.3894 12.6984 40.9133C6.34988 34.4371 -1.22668 29.2925 -9.58781 25.7803C-17.949 22.2682 -26.9267 20.4592 -35.9955 20.4592C-45.0643 20.4592 -54.042 22.2682 -62.4032 25.7803C-70.7643 29.2925 -78.3409 34.4371 -84.6894 40.9133C-91.0379 47.3894 -96.0308 55.0668 -99.3759 63.4962C-102.721 71.9255 -104.351 80.9375 -104.17 90.0045H-126V0H53.9955Z" fill="#425330" fill-opacity="0.52"/>
<path d="M32.1795 90.0045C31.8244 107.851 24.4856 124.846 11.739 137.342C-1.00764 149.837 -18.1457 156.836 -35.9955 156.836C-53.8452 156.836 -70.9833 149.837 -83.7299 137.342C-96.4765 124.846 -103.815 107.851 -104.17 90.0045H32.1795Z" fill="#425330" fill-opacity="0.52"/>
<path d="M504.005 90.0045C527.873 90.0009 550.762 80.5168 567.639 63.638C584.515 46.7593 593.996 23.8683 593.996 0V179.995C593.996 168.178 591.668 156.476 587.145 145.557C582.623 134.639 575.994 124.719 567.638 116.362C559.281 108.006 549.361 101.377 538.443 96.8547C527.524 92.3322 515.822 90.0045 504.005 90.0045Z" fill="#425330" fill-opacity="0.52"/>
<path d="M414 179.995V0C414.004 23.8696 423.487 46.7605 440.366 63.6388C457.244 80.5172 480.135 90.0009 504.005 90.0045C480.136 90.0045 457.245 99.4852 440.366 116.361C423.488 133.238 414.004 156.127 414 179.995Z" fill="#425330" fill-opacity="0.52"/>
<path d="M458.807 179.995C459.011 168.145 463.863 156.85 472.315 148.542C480.768 140.234 492.146 135.579 503.998 135.579C515.85 135.579 527.228 140.234 535.68 148.542C544.133 156.85 548.984 168.145 549.189 179.995H458.807Z" fill="#425330" fill-opacity="0.52"/>
<path d="M414 0V90.0045H392.184C392.364 80.9375 390.734 71.9255 387.389 63.4962C384.044 55.0668 379.051 47.3894 372.703 40.9133C366.354 34.4371 358.778 29.2925 350.417 25.7803C342.056 22.2682 333.078 20.4592 324.009 20.4592C314.94 20.4592 305.962 22.2682 297.601 25.7803C289.24 29.2925 281.664 34.4371 275.315 40.9133C268.967 47.3894 263.974 55.0668 260.629 63.4962C257.284 71.9255 255.654 80.9375 255.834 90.0045H234.005V0H414Z" fill="#425330" fill-opacity="0.52"/>
<path d="M392.184 90.0045C391.829 107.851 384.49 124.846 371.743 137.342C358.997 149.837 341.859 156.836 324.009 156.836C306.159 156.836 289.021 149.837 276.275 137.342C263.528 124.846 256.189 107.851 255.834 90.0045H392.184Z" fill="#425330" fill-opacity="0.52"/>
<path d="M863.996 90.0045C887.866 90.0045 910.759 80.5219 927.638 63.6428C944.517 46.7637 954 23.8707 954 0V179.995C954 168.177 951.672 156.473 947.149 145.554C942.625 134.635 935.995 124.714 927.638 116.357C919.28 108.001 909.358 101.372 898.438 96.8508C887.518 92.3291 875.814 90.0027 863.996 90.0045Z" fill="#425330" fill-opacity="0.52"/>
<path d="M774.004 179.995V0C774.008 23.8672 783.49 46.7561 800.365 63.6341C817.241 80.512 840.128 89.9973 863.995 90.0045C840.129 90.0081 817.242 99.4904 800.366 116.366C783.49 133.242 774.008 156.13 774.004 179.995Z" fill="#425330" fill-opacity="0.52"/>
<path d="M818.811 179.995C819.016 168.145 823.867 156.85 832.32 148.542C840.773 140.234 852.15 135.579 864.002 135.579C875.854 135.579 887.232 140.234 895.685 148.542C904.137 156.85 908.989 168.145 909.193 179.995H818.811Z" fill="#425330" fill-opacity="0.52"/>
<path d="M774.005 0V90.0045H752.189C752.369 80.9375 750.739 71.9255 747.394 63.4962C744.049 55.0668 739.056 47.3894 732.707 40.9133C726.359 34.4371 718.782 29.2925 710.421 25.7803C702.06 22.2682 693.082 20.4592 684.014 20.4592C674.945 20.4592 665.967 22.2682 657.606 25.7803C649.245 29.2925 641.668 34.4371 635.32 40.9133C628.971 47.3894 623.978 55.0668 620.633 63.4962C617.288 71.9255 615.658 80.9375 615.839 90.0045H593.996V0H774.005Z" fill="#425330" fill-opacity="0.52"/>
<path d="M752.189 90.0045C751.833 107.851 744.495 124.846 731.748 137.342C719.001 149.837 701.863 156.836 684.014 156.836C666.164 156.836 649.026 149.837 636.279 137.342C623.532 124.846 616.194 107.851 615.839 90.0045H752.189Z" fill="#425330" fill-opacity="0.52"/>
<path d="M684 270C672.18 269.998 660.475 272.325 649.555 276.848C638.634 281.37 628.711 288 620.353 296.358C611.995 304.716 605.366 314.639 600.843 325.559C596.321 336.48 593.994 348.184 593.996 360.005V179.995C593.996 203.866 603.478 226.759 620.357 243.638C637.236 260.517 660.129 270 684 270Z" fill="#425330" fill-opacity="0.52"/>
<path d="M774.004 179.995V360.005C774.001 336.135 764.517 313.244 747.639 296.366C730.761 279.487 707.87 270.004 684 270C707.87 269.996 730.761 260.513 747.639 243.634C764.517 226.756 774.001 203.865 774.004 179.995Z" fill="#425330" fill-opacity="0.52"/>
<path d="M729.184 179.995C729.184 191.979 724.424 203.472 715.95 211.946C707.477 220.419 695.984 225.18 684 225.18C672.016 225.18 660.523 220.419 652.05 211.946C643.576 203.472 638.816 191.979 638.816 179.995H729.184Z" fill="#425330" fill-opacity="0.52"/>
<path d="M774.004 360.005V270H795.821C795.64 279.067 797.27 288.079 800.615 296.508C803.96 304.938 808.953 312.615 815.302 319.091C821.65 325.567 829.227 330.712 837.588 334.224C845.949 337.736 854.927 339.545 863.996 339.545C873.064 339.545 882.042 337.736 890.403 334.224C898.764 330.712 906.341 325.567 912.689 319.091C919.038 312.615 924.031 304.938 927.376 296.508C930.721 288.079 932.351 279.067 932.171 270H954V360.005H774.004Z" fill="#425330" fill-opacity="0.52"/>
<path d="M795.821 270C795.64 260.933 797.27 251.921 800.615 243.492C803.96 235.062 808.953 227.385 815.302 220.909C821.65 214.433 829.227 209.288 837.588 205.776C845.949 202.264 854.927 200.455 863.996 200.455C873.064 200.455 882.042 202.264 890.403 205.776C898.764 209.288 906.341 214.433 912.689 220.909C919.038 227.385 924.031 235.062 927.376 243.492C930.721 251.921 932.351 260.933 932.171 270H795.821Z" fill="#425330" fill-opacity="0.52"/>
<path d="M323.995 270C312.177 270 300.473 272.328 289.554 276.851C278.635 281.375 268.714 288.005 260.357 296.363C252.001 304.72 245.372 314.643 240.851 325.562C236.329 336.482 234.003 348.186 234.005 360.005V179.995C234.005 203.864 243.485 226.755 260.361 243.634C277.238 260.512 300.127 269.996 323.995 270Z" fill="#425330" fill-opacity="0.52"/>
<path d="M414 179.995V360.005C414 336.134 404.517 313.241 387.638 296.362C370.759 279.483 347.866 270 323.995 270C347.865 269.996 370.756 260.513 387.634 243.634C404.513 226.756 413.996 203.865 414 179.995Z" fill="#425330" fill-opacity="0.52"/>
<path d="M369.193 179.995C369.297 185.996 368.205 191.957 365.98 197.53C363.756 203.104 360.444 208.179 356.237 212.459C352.03 216.739 347.013 220.138 341.479 222.459C335.945 224.779 330.003 225.975 324.002 225.975C318.001 225.975 312.06 224.779 306.525 222.459C300.991 220.138 295.974 216.739 291.767 212.459C287.561 208.179 284.249 203.104 282.024 197.53C279.8 191.957 278.707 185.996 278.811 179.995H369.193Z" fill="#425330" fill-opacity="0.52"/>
<path d="M414 360.005V270H435.816C435.636 279.067 437.266 288.079 440.611 296.508C443.956 304.938 448.949 312.615 455.297 319.091C461.646 325.567 469.222 330.712 477.583 334.224C485.944 337.736 494.922 339.545 503.991 339.545C513.06 339.545 522.038 337.736 530.399 334.224C538.76 330.712 546.336 325.567 552.685 319.091C559.033 312.615 564.026 304.938 567.371 296.508C570.716 288.079 572.346 279.067 572.166 270H593.982V360.005H414Z" fill="#425330" fill-opacity="0.52"/>
<path d="M435.816 270C435.636 260.933 437.266 251.921 440.611 243.492C443.956 235.062 448.949 227.385 455.297 220.909C461.646 214.433 469.222 209.288 477.583 205.776C485.944 202.264 494.922 200.455 503.991 200.455C513.06 200.455 522.038 202.264 530.399 205.776C538.76 209.288 546.336 214.433 552.685 220.909C559.033 227.385 564.026 235.062 567.371 243.492C570.716 251.921 572.346 260.933 572.166 270H435.816Z" fill="#425330" fill-opacity="0.52"/>
<path d="M53.9955 179.995V360.005C53.9955 336.136 44.5148 313.245 27.6386 296.366C10.7624 279.488 -12.1271 270.004 -35.9955 270C-12.1282 269.993 10.7592 260.508 27.6346 243.63C44.51 226.752 53.9919 203.863 53.9955 179.995Z" fill="#425330" fill-opacity="0.52"/>
<path d="M9.18899 179.995C9.2927 185.996 8.20044 191.957 5.97593 197.53C3.75142 203.104 0.439209 208.179 -3.76746 212.459C-7.97414 216.739 -12.9911 220.138 -18.5255 222.459C-24.0599 224.779 -30.001 225.975 -36.0023 225.975C-42.0035 225.975 -47.9446 224.779 -53.479 222.459C-59.0135 220.138 -64.0304 216.739 -68.237 212.459C-72.4437 208.179 -75.7559 203.104 -77.9804 197.53C-80.205 191.957 -81.2972 185.996 -81.1935 179.995H9.18899Z" fill="#425330" fill-opacity="0.52"/>
<path d="M53.9955 360.005V270H75.8115C76.1667 287.846 83.5054 304.842 96.252 317.337C108.999 329.833 126.137 336.832 143.986 336.832C161.836 336.832 178.974 329.833 191.721 317.337C204.468 304.842 211.806 287.846 212.161 270H233.977V360.005H53.9955Z" fill="#425330" fill-opacity="0.52"/>
<path d="M75.8115 270C76.1667 252.154 83.5054 235.158 96.2521 222.663C108.999 210.167 126.137 203.168 143.987 203.168C161.836 203.168 178.974 210.167 191.721 222.663C204.468 235.158 211.806 252.154 212.162 270H75.8115Z" fill="#425330" fill-opacity="0.52"/>
<path d="M144 449.995C155.819 449.997 167.522 447.671 178.442 443.149C189.362 438.628 199.284 431.999 207.642 423.643C216 415.286 222.63 405.365 227.153 394.446C231.676 383.527 234.005 371.823 234.005 360.005V540C234.005 528.18 231.676 516.477 227.153 505.557C222.63 494.637 216 484.715 207.643 476.357C199.285 467.999 189.363 461.37 178.443 456.847C167.523 452.324 155.82 449.995 144 449.995Z" fill="#425330" fill-opacity="0.52"/>
<path d="M53.9955 540V360.005C54.0026 383.872 63.488 406.759 80.3659 423.635C97.2439 440.51 120.133 449.992 144 449.995C120.13 449.999 97.2395 459.483 80.3611 476.361C63.4828 493.239 53.9991 516.13 53.9955 540Z" fill="#425330" fill-opacity="0.52"/>
<path d="M98.8155 540C98.8155 528.016 103.576 516.523 112.05 508.05C120.523 499.576 132.016 494.815 144 494.815C155.984 494.815 167.477 499.576 175.95 508.05C184.424 516.523 189.184 528.016 189.184 540H98.8155Z" fill="#425330" fill-opacity="0.52"/>
<path d="M53.9955 360.005V449.995H32.1795C31.8243 432.149 24.4856 415.154 11.739 402.658C-1.00768 390.163 -18.1458 383.164 -35.9955 383.164C-53.8452 383.164 -70.9833 390.163 -83.7299 402.658C-96.4766 415.154 -103.815 432.149 -104.17 449.995H-126V360.005H53.9955Z" fill="#425330" fill-opacity="0.52"/>
<path d="M32.1795 449.995C32.3599 459.063 30.7299 468.074 27.3849 476.504C24.0398 484.933 19.0469 492.611 12.6984 499.087C6.34987 505.563 -1.22669 510.708 -9.58783 514.22C-17.949 517.732 -26.9267 519.541 -35.9955 519.541C-45.0644 519.541 -54.0421 517.732 -62.4032 514.22C-70.7643 510.708 -78.3409 505.563 -84.6894 499.087C-91.0379 492.611 -96.0308 484.933 -99.3759 476.504C-102.721 468.074 -104.351 459.063 -104.171 449.995H32.1795Z" fill="#425330" fill-opacity="0.52"/>
<path d="M504.005 449.995C515.822 449.995 527.524 447.668 538.443 443.145C549.361 438.623 559.281 431.994 567.638 423.638C575.994 415.281 582.623 405.361 587.145 394.443C591.668 383.524 593.996 371.822 593.996 360.005V540C593.996 516.132 584.515 493.241 567.639 476.362C550.762 459.483 527.873 449.999 504.005 449.995Z" fill="#425330" fill-opacity="0.52"/>
<path d="M414 540V360.005C414.007 383.872 423.492 406.759 440.37 423.635C457.248 440.51 480.137 449.992 504.005 449.995C480.135 449.999 457.244 459.483 440.366 476.361C423.487 493.239 414.004 516.13 414 540Z" fill="#425330" fill-opacity="0.52"/>
<path d="M458.807 540C459.011 528.15 463.863 516.854 472.315 508.546C480.768 500.238 492.146 495.583 503.998 495.583C515.85 495.583 527.228 500.238 535.68 508.546C544.133 516.854 548.984 528.15 549.189 540H458.807Z" fill="#425330" fill-opacity="0.52"/>
<path d="M414 360.005V449.995H392.184C391.829 432.149 384.49 415.154 371.743 402.658C358.997 390.163 341.859 383.164 324.009 383.164C306.159 383.164 289.021 390.163 276.275 402.658C263.528 415.154 256.189 432.149 255.834 449.995H234.005V360.005H414Z" fill="#425330" fill-opacity="0.52"/>
<path d="M392.184 449.995C392.364 459.063 390.734 468.074 387.389 476.504C384.044 484.933 379.051 492.611 372.703 499.087C366.354 505.563 358.778 510.708 350.417 514.22C342.056 517.732 333.078 519.541 324.009 519.541C314.94 519.541 305.962 517.732 297.601 514.22C289.24 510.708 281.664 505.563 275.315 499.087C268.967 492.611 263.974 484.933 260.629 476.504C257.284 468.074 255.654 459.063 255.834 449.995H392.184Z" fill="#425330" fill-opacity="0.52"/>
<path d="M863.996 449.995C875.814 449.997 887.518 447.671 898.438 443.149C909.358 438.628 919.28 431.999 927.638 423.643C935.995 415.286 942.625 405.365 947.149 394.446C951.672 383.527 954 371.823 954 360.005V540C954 516.129 944.517 493.236 927.638 476.357C910.759 459.478 887.866 449.995 863.996 449.995Z" fill="#425330" fill-opacity="0.52"/>
<path d="M774.004 540V360.005C774.008 383.871 783.49 406.758 800.366 423.634C817.242 440.51 840.129 449.992 863.995 449.995C840.128 450.003 817.241 459.488 800.365 476.366C783.49 493.244 774.008 516.133 774.004 540Z" fill="#425330" fill-opacity="0.52"/>
<path d="M818.811 540C819.016 528.15 823.867 516.854 832.32 508.546C840.773 500.238 852.15 495.583 864.002 495.583C875.854 495.583 887.232 500.238 895.685 508.546C904.137 516.854 908.989 528.15 909.193 540H818.811Z" fill="#425330" fill-opacity="0.52"/>
<path d="M774.005 360.005V449.995H752.189C751.833 432.149 744.495 415.154 731.748 402.658C719.001 390.163 701.863 383.164 684.014 383.164C666.164 383.164 649.026 390.163 636.279 402.658C623.532 415.154 616.194 432.149 615.839 449.995H593.996V360.005H774.005Z" fill="#425330" fill-opacity="0.52"/>
<path d="M752.189 449.995C751.833 467.842 744.495 484.837 731.748 497.333C719.001 509.828 701.863 516.827 684.014 516.827C666.164 516.827 649.026 509.828 636.279 497.333C623.532 484.837 616.194 467.842 615.839 449.995H752.189Z" fill="#425330" fill-opacity="0.52"/>
<path d="M684 630.005C672.181 630.003 660.478 632.329 649.558 636.851C638.638 641.372 628.716 648.001 620.358 656.357C612 664.714 605.37 674.635 600.847 685.554C596.324 696.473 593.996 708.177 593.996 719.996V540C593.996 551.82 596.324 563.523 600.847 574.443C605.37 585.363 612 595.285 620.357 603.643C628.715 612.001 638.637 618.63 649.557 623.153C660.477 627.676 672.18 630.005 684 630.005Z" fill="#425330" fill-opacity="0.52"/>
<path d="M774.004 540V719.996C773.997 696.128 764.512 673.241 747.634 656.365C730.756 639.49 707.867 630.008 684 630.005C707.87 630.001 730.761 620.517 747.639 603.639C764.517 586.761 774.001 563.87 774.004 540Z" fill="#425330" fill-opacity="0.52"/>
<path d="M729.184 540C729.184 551.984 724.424 563.477 715.95 571.95C707.477 580.424 695.984 585.185 684 585.185C672.016 585.185 660.523 580.424 652.05 571.95C643.576 563.477 638.816 551.984 638.816 540H729.184Z" fill="#425330" fill-opacity="0.52"/>
<path d="M774.004 719.996V630.005H795.821C796.176 647.851 803.514 664.846 816.261 677.342C829.008 689.837 846.146 696.836 863.996 696.836C881.845 696.836 898.983 689.837 911.73 677.342C924.477 664.846 931.815 647.851 932.171 630.005H954V719.996H774.004Z" fill="#425330" fill-opacity="0.52"/>
<path d="M795.821 630.005C795.64 620.938 797.27 611.926 800.615 603.496C803.96 595.067 808.953 587.389 815.302 580.913C821.65 574.437 829.227 569.293 837.588 565.78C845.949 562.268 854.927 560.459 863.996 560.459C873.064 560.459 882.042 562.268 890.403 565.78C898.764 569.293 906.341 574.437 912.689 580.913C919.038 587.389 924.031 595.067 927.376 603.496C930.721 611.926 932.351 620.938 932.171 630.005H795.821Z" fill="#425330" fill-opacity="0.52"/>
<path d="M323.995 630.005C300.128 630.005 277.239 639.486 260.362 656.362C243.486 673.239 234.005 696.128 234.005 719.996V540C234.005 563.868 243.485 586.759 260.361 603.638C277.238 620.517 300.127 630.001 323.995 630.005Z" fill="#425330" fill-opacity="0.52"/>
<path d="M414 540V719.996C413.996 696.127 404.512 673.238 387.634 656.361C370.755 639.485 347.864 630.005 323.995 630.005C347.865 630.001 370.756 620.517 387.634 603.639C404.513 586.761 413.996 563.87 414 540Z" fill="#425330" fill-opacity="0.52"/>
<path d="M369.193 540C368.989 551.85 364.137 563.146 355.685 571.454C347.232 579.762 335.854 584.417 324.002 584.417C312.15 584.417 300.773 579.762 292.32 571.454C283.867 563.146 279.016 551.85 278.811 540H369.193Z" fill="#425330" fill-opacity="0.52"/>
<path d="M414 719.996V630.005H435.816C436.171 647.851 443.51 664.846 456.257 677.342C469.003 689.837 486.141 696.836 503.991 696.836C521.841 696.836 538.979 689.837 551.725 677.342C564.472 664.846 571.811 647.851 572.166 630.005H593.982V719.996H414Z" fill="#425330" fill-opacity="0.52"/>
<path d="M435.816 630.005C435.636 620.938 437.266 611.926 440.611 603.496C443.956 595.067 448.949 587.389 455.297 580.913C461.646 574.437 469.222 569.293 477.583 565.78C485.944 562.268 494.922 560.459 503.991 560.459C513.06 560.459 522.038 562.268 530.399 565.78C538.76 569.293 546.336 574.437 552.685 580.913C559.033 587.389 564.026 595.067 567.371 603.496C570.716 611.926 572.346 620.938 572.166 630.005H435.816Z" fill="#425330" fill-opacity="0.52"/>
<path d="M53.9955 540V719.996C53.9919 696.13 44.5096 673.242 27.6338 656.366C10.758 639.49 -12.1295 630.008 -35.9955 630.005C-12.1282 629.997 10.7592 620.512 27.6346 603.634C44.51 586.756 53.9919 563.867 53.9955 540Z" fill="#425330" fill-opacity="0.52"/>
<path d="M9.18901 540C8.98418 551.85 4.13292 563.146 -4.31979 571.454C-12.7725 579.762 -24.1503 584.417 -36.0022 584.417C-47.8542 584.417 -59.232 579.762 -67.6847 571.454C-76.1374 563.146 -80.9887 551.85 -81.1935 540H9.18901Z" fill="#425330" fill-opacity="0.52"/>
<path d="M53.9955 719.996V630.005H75.8115C76.1667 647.851 83.5054 664.846 96.252 677.342C108.999 689.837 126.137 696.836 143.986 696.836C161.836 696.836 178.974 689.837 191.721 677.342C204.468 664.846 211.806 647.851 212.161 630.005H233.977V719.996H53.9955Z" fill="#425330" fill-opacity="0.52"/>
<path d="M75.8115 630.005C76.1667 612.158 83.5054 595.163 96.2521 582.667C108.999 570.172 126.137 563.173 143.987 563.173C161.836 563.173 178.974 570.172 191.721 582.667C204.468 595.163 211.806 612.158 212.162 630.005H75.8115Z" fill="#425330" fill-opacity="0.52"/>
<path d="M144 810C155.82 810.002 167.525 807.675 178.445 803.152C189.366 798.63 199.289 792 207.647 783.642C216.005 775.284 222.634 765.361 227.157 754.441C231.679 743.52 234.006 731.816 234.005 719.996V900.005C234.005 888.185 231.676 876.481 227.153 865.561C222.63 854.641 216 844.719 207.643 836.362C199.285 828.004 189.363 821.374 178.443 816.851C167.523 812.328 155.82 810 144 810Z" fill="#425330" fill-opacity="0.52"/>
<path d="M53.9955 900.005V719.996C53.9991 743.865 63.4828 766.756 80.3611 783.634C97.2395 800.513 120.13 809.996 144 810C120.13 810.004 97.2395 819.487 80.3611 836.366C63.4828 853.244 53.9991 876.135 53.9955 900.005Z" fill="#425330" fill-opacity="0.52"/>
<path d="M98.8155 900.004C98.8155 888.021 103.576 876.528 112.05 868.054C120.523 859.58 132.016 854.82 144 854.82C155.984 854.82 167.477 859.58 175.95 868.054C184.424 876.528 189.184 888.021 189.184 900.004H98.8155Z" fill="#425330" fill-opacity="0.52"/>
<path d="M53.9955 719.996V810H32.1795C32.36 800.933 30.7299 791.921 27.3849 783.492C24.0398 775.062 19.0469 767.385 12.6984 760.909C6.34988 754.433 -1.22668 749.288 -9.58781 745.776C-17.949 742.264 -26.9267 740.455 -35.9955 740.455C-45.0643 740.455 -54.042 742.264 -62.4032 745.776C-70.7643 749.288 -78.3409 754.433 -84.6894 760.909C-91.0379 767.385 -96.0308 775.062 -99.3759 783.492C-102.721 791.921 -104.351 800.933 -104.17 810H-126V719.996H53.9955Z" fill="#425330" fill-opacity="0.52"/>
<path d="M32.1795 810C32.3599 819.067 30.7299 828.079 27.3849 836.508C24.0398 844.938 19.0469 852.615 12.6984 859.091C6.34987 865.567 -1.22669 870.712 -9.58783 874.224C-17.949 877.736 -26.9267 879.545 -35.9955 879.545C-45.0644 879.545 -54.0421 877.736 -62.4032 874.224C-70.7643 870.712 -78.3409 865.567 -84.6894 859.091C-91.0379 852.615 -96.0308 844.938 -99.3759 836.508C-102.721 828.079 -104.351 819.067 -104.171 810H32.1795Z" fill="#425330" fill-opacity="0.52"/>
<path d="M504.005 810C515.823 810 527.527 807.672 538.446 803.149C549.365 798.625 559.286 791.995 567.643 783.638C575.999 775.28 582.628 765.358 587.149 754.438C591.671 743.518 593.997 731.814 593.996 719.996V900.005C593.996 876.136 584.515 853.245 567.639 836.366C550.762 819.488 527.873 810.004 504.005 810Z" fill="#425330" fill-opacity="0.52"/>
<path d="M414 900.005V719.996C414.004 743.865 423.487 766.756 440.366 783.634C457.244 800.513 480.135 809.996 504.005 810C480.135 810.004 457.244 819.487 440.366 836.366C423.487 853.244 414.004 876.135 414 900.005Z" fill="#425330" fill-opacity="0.52"/>
<path d="M458.806 900.004C458.703 894.004 459.795 888.043 462.02 882.47C464.244 876.896 467.556 871.821 471.763 867.541C475.97 863.261 480.987 859.862 486.521 857.541C492.055 855.221 497.997 854.025 503.998 854.025C509.999 854.025 515.94 855.221 521.475 857.541C527.009 859.862 532.026 863.261 536.233 867.541C540.439 871.821 543.751 876.896 545.976 882.47C548.2 888.043 549.293 894.004 549.189 900.004H458.806Z" fill="#425330" fill-opacity="0.52"/>
<path d="M414 719.996V810H392.184C392.364 800.933 390.734 791.921 387.389 783.492C384.044 775.062 379.051 767.385 372.703 760.909C366.354 754.433 358.778 749.288 350.417 745.776C342.056 742.264 333.078 740.455 324.009 740.455C314.94 740.455 305.962 742.264 297.601 745.776C289.24 749.288 281.664 754.433 275.315 760.909C268.967 767.385 263.974 775.062 260.629 783.492C257.284 791.921 255.654 800.933 255.834 810H234.005V719.996H414Z" fill="#425330" fill-opacity="0.52"/>
<path d="M392.184 810C392.364 819.067 390.734 828.079 387.389 836.508C384.044 844.938 379.051 852.615 372.703 859.091C366.354 865.567 358.778 870.712 350.417 874.224C342.056 877.736 333.078 879.545 324.009 879.545C314.94 879.545 305.962 877.736 297.601 874.224C289.24 870.712 281.664 865.567 275.315 859.091C268.967 852.615 263.974 844.938 260.629 836.508C257.284 828.079 255.654 819.067 255.834 810H392.184Z" fill="#425330" fill-opacity="0.52"/>
<path d="M863.996 810C875.816 810.002 887.52 807.675 898.441 803.152C909.361 798.63 919.284 792 927.642 783.642C936 775.284 942.63 765.361 947.152 754.441C951.675 743.52 954.002 731.816 954 719.996V900.005C954 876.134 944.517 853.241 927.638 836.362C910.759 819.483 887.866 810 863.996 810Z" fill="#425330" fill-opacity="0.52"/>
<path d="M774.004 900.005V719.996C774.004 743.864 783.485 766.755 800.361 783.634C817.238 800.512 840.127 809.996 863.995 810C840.128 810.007 817.241 819.492 800.365 836.37C783.49 853.248 774.008 876.137 774.004 900.005Z" fill="#425330" fill-opacity="0.52"/>
<path d="M818.811 900.004C818.707 894.004 819.8 888.043 822.024 882.47C824.249 876.896 827.561 871.821 831.767 867.541C835.974 863.261 840.991 859.862 846.525 857.541C852.06 855.221 858.001 854.025 864.002 854.025C870.003 854.025 875.945 855.221 881.479 857.541C887.013 859.862 892.03 863.261 896.237 867.541C900.444 871.821 903.756 876.896 905.98 882.47C908.205 888.043 909.297 894.004 909.193 900.004H818.811Z" fill="#425330" fill-opacity="0.52"/>
<path d="M774.005 719.996V810H752.189C751.833 792.154 744.495 775.158 731.748 762.663C719.001 750.167 701.863 743.168 684.014 743.168C666.164 743.168 649.026 750.167 636.279 762.663C623.532 775.158 616.194 792.154 615.839 810H593.996V719.996H774.005Z" fill="#425330" fill-opacity="0.52"/>
<path d="M752.189 810C751.833 827.846 744.495 844.842 731.748 857.337C719.001 869.833 701.863 876.832 684.014 876.832C666.164 876.832 649.026 869.833 636.279 857.337C623.532 844.842 616.194 827.846 615.839 810H752.189Z" fill="#425330" fill-opacity="0.52"/>
<path d="M684 989.996C660.129 989.996 637.236 999.478 620.357 1016.36C603.478 1033.24 593.996 1056.13 593.996 1080V900.004C593.996 911.823 596.324 923.527 600.847 934.446C605.37 945.365 612 955.286 620.358 963.642C628.716 971.999 638.638 978.628 649.558 983.149C660.478 987.671 672.181 989.997 684 989.996Z" fill="#425330" fill-opacity="0.52"/>
<path d="M774.004 900.004V1080C774.001 1056.13 764.517 1033.24 747.639 1016.36C730.761 999.483 707.87 989.999 684 989.996C707.867 989.992 730.756 980.51 747.634 963.635C764.512 946.759 773.997 923.872 774.004 900.004Z" fill="#425330" fill-opacity="0.52"/>
<path d="M729.184 900.004C729.184 911.988 724.424 923.481 715.95 931.955C707.477 940.428 695.984 945.189 684 945.189C672.016 945.189 660.523 940.428 652.05 931.955C643.576 923.481 638.816 911.988 638.816 900.004H729.184Z" fill="#425330" fill-opacity="0.52"/>
<path d="M774.004 1080V989.996H795.821C795.64 999.063 797.27 1008.07 800.615 1016.5C803.96 1024.93 808.953 1032.61 815.302 1039.09C821.65 1045.56 829.227 1050.71 837.588 1054.22C845.949 1057.73 854.927 1059.54 863.996 1059.54C873.064 1059.54 882.042 1057.73 890.403 1054.22C898.764 1050.71 906.341 1045.56 912.689 1039.09C919.038 1032.61 924.031 1024.93 927.376 1016.5C930.721 1008.07 932.351 999.063 932.171 989.996H954V1080H774.004Z" fill="#425330" fill-opacity="0.52"/>
<path d="M795.82 989.996C796.176 972.149 803.514 955.154 816.261 942.658C829.008 930.163 846.146 923.164 863.995 923.164C881.845 923.164 898.983 930.163 911.73 942.658C924.477 955.154 931.815 972.149 932.171 989.996H795.82Z" fill="#425330" fill-opacity="0.52"/>
<path d="M323.995 989.996C300.127 989.999 277.238 999.483 260.361 1016.36C243.485 1033.24 234.005 1056.13 234.005 1080V900.004C234.005 911.822 236.332 923.524 240.855 934.443C245.377 945.361 252.006 955.281 260.362 963.638C268.719 971.994 278.639 978.623 289.557 983.145C300.476 987.668 312.178 989.996 323.995 989.996Z" fill="#425330" fill-opacity="0.52"/>
<path d="M414 900.004V1080C413.996 1056.13 404.513 1033.24 387.634 1016.36C370.756 999.483 347.865 989.999 323.995 989.996C347.864 989.996 370.755 980.515 387.634 963.639C404.512 946.762 413.996 923.873 414 900.004Z" fill="#425330" fill-opacity="0.52"/>
<path d="M369.193 900.004C368.989 911.855 364.137 923.15 355.685 931.458C347.232 939.766 335.854 944.421 324.002 944.421C312.15 944.421 300.773 939.766 292.32 931.458C283.867 923.15 279.016 911.855 278.811 900.004H369.193Z" fill="#425330" fill-opacity="0.52"/>
<path d="M414 1080V989.996H435.816C435.636 999.063 437.266 1008.07 440.611 1016.5C443.956 1024.93 448.949 1032.61 455.297 1039.09C461.646 1045.56 469.222 1050.71 477.583 1054.22C485.944 1057.73 494.922 1059.54 503.991 1059.54C513.06 1059.54 522.038 1057.73 530.399 1054.22C538.76 1050.71 546.336 1045.56 552.685 1039.09C559.033 1032.61 564.026 1024.93 567.371 1016.5C570.716 1008.07 572.346 999.063 572.166 989.996H593.982V1080H414Z" fill="#425330" fill-opacity="0.52"/>
<path d="M435.816 989.996C436.171 972.149 443.51 955.154 456.257 942.658C469.003 930.163 486.141 923.164 503.991 923.164C521.841 923.164 538.979 930.163 551.725 942.658C564.472 955.154 571.811 972.149 572.166 989.996H435.816Z" fill="#425330" fill-opacity="0.52"/>
<path d="M53.9955 900.004V1080C53.9919 1056.13 44.51 1033.24 27.6346 1016.37C10.7592 999.488 -12.1282 990.003 -35.9955 989.996C-12.1295 989.992 10.758 980.51 27.6338 963.634C44.5096 946.758 53.9919 923.87 53.9955 900.004Z" fill="#425330" fill-opacity="0.52"/>
<path d="M9.18901 900.004C8.98418 911.855 4.13292 923.15 -4.31979 931.458C-12.7725 939.766 -24.1503 944.421 -36.0022 944.421C-47.8542 944.421 -59.232 939.766 -67.6847 931.458C-76.1374 923.15 -80.9887 911.855 -81.1935 900.004H9.18901Z" fill="#425330" fill-opacity="0.52"/>
<path d="M53.9955 1080V989.996H75.8115C76.1667 1007.84 83.5054 1024.84 96.252 1037.33C108.999 1049.83 126.137 1056.83 143.986 1056.83C161.836 1056.83 178.974 1049.83 191.721 1037.33C204.468 1024.84 211.806 1007.84 212.161 989.996H233.977V1080H53.9955Z" fill="#425330" fill-opacity="0.52"/>
<path d="M75.8115 989.996C76.1667 972.149 83.5054 955.154 96.2521 942.658C108.999 930.163 126.137 923.164 143.987 923.164C161.836 923.164 178.974 930.163 191.721 942.658C204.468 955.154 211.806 972.149 212.162 989.996H75.8115Z" fill="#425330" fill-opacity="0.52"/>
</g>
<g clip-path="url(#clip1_2_195)">
<path d="M1224 83.0045C1235.82 83.0045 1247.52 80.6765 1258.44 76.1533C1269.36 71.6302 1279.29 65.0005 1287.64 56.6428C1296 48.2851 1302.63 38.3631 1307.15 27.4432C1311.68 16.5234 1314 4.81956 1314 -7V172.995C1314 161.177 1311.68 149.473 1307.15 138.554C1302.63 127.635 1296 117.714 1287.64 109.357C1279.28 101.001 1269.36 94.3725 1258.44 89.8508C1247.52 85.3291 1235.82 83.0027 1224 83.0045Z" fill="#425330" fill-opacity="0.52"/>
<path d="M1134 172.995V-7C1134 16.8696 1143.48 39.7605 1160.36 56.6388C1177.24 73.5172 1200.13 83.0009 1224 83.0045C1200.13 83.0081 1177.24 92.49 1160.37 109.365C1143.49 126.241 1134 149.128 1134 172.995Z" fill="#425330" fill-opacity="0.52"/>
<path d="M1178.82 172.996C1178.82 161.012 1183.58 149.519 1192.05 141.045C1200.52 132.572 1212.02 127.811 1224 127.811C1235.98 127.811 1247.48 132.572 1255.95 141.045C1264.42 149.519 1269.18 161.012 1269.18 172.996H1178.82Z" fill="#425330" fill-opacity="0.52"/>
<path d="M1134 -7V83.0045H1112.18C1112.36 73.9375 1110.73 64.9255 1107.38 56.4962C1104.04 48.0668 1099.05 40.3894 1092.7 33.9133C1086.35 27.4371 1078.77 22.2925 1070.41 18.7803C1062.05 15.2682 1053.07 13.4592 1044 13.4592C1034.94 13.4592 1025.96 15.2682 1017.6 18.7803C1009.24 22.2925 1001.66 27.4371 995.311 33.9133C988.962 40.3894 983.969 48.0668 980.624 56.4962C977.279 64.9255 975.649 73.9375 975.83 83.0045H954V-7H1134Z" fill="#425330" fill-opacity="0.52"/>
<path d="M1112.18 83.0045C1111.82 100.851 1104.49 117.846 1091.74 130.342C1078.99 142.837 1061.85 149.836 1044 149.836C1026.15 149.836 1009.02 142.837 996.27 130.342C983.523 117.846 976.185 100.851 975.829 83.0045H1112.18Z" fill="#425330" fill-opacity="0.52"/>
<path d="M1584 83.0045C1607.87 83.0009 1630.76 73.5168 1647.64 56.638C1664.51 39.7593 1674 16.8683 1674 -7V172.995C1674 161.178 1671.67 149.476 1667.15 138.557C1662.62 127.639 1655.99 117.719 1647.64 109.362C1639.28 101.006 1629.36 94.3771 1618.44 89.8547C1607.52 85.3322 1595.82 83.0045 1584 83.0045Z" fill="#425330" fill-opacity="0.52"/>
<path d="M1494 172.995V-7C1494 16.8696 1503.49 39.7605 1520.37 56.6388C1537.24 73.5172 1560.13 83.0009 1584 83.0045C1560.14 83.0045 1537.25 92.4852 1520.37 109.361C1503.49 126.238 1494 149.127 1494 172.995Z" fill="#425330" fill-opacity="0.52"/>
<path d="M1538.81 172.995C1539.01 161.145 1543.86 149.85 1552.32 141.542C1560.77 133.234 1572.15 128.579 1584 128.579C1595.85 128.579 1607.23 133.234 1615.68 141.542C1624.13 149.85 1628.98 161.145 1629.19 172.995H1538.81Z" fill="#425330" fill-opacity="0.52"/>
<path d="M1494 -7V83.0045H1472.18C1472.36 73.9375 1470.73 64.9255 1467.39 56.4962C1464.04 48.0668 1459.05 40.3894 1452.7 33.9133C1446.35 27.4371 1438.78 22.2925 1430.42 18.7803C1422.06 15.2682 1413.08 13.4592 1404.01 13.4592C1394.94 13.4592 1385.96 15.2682 1377.6 18.7803C1369.24 22.2925 1361.66 27.4371 1355.32 33.9133C1348.97 40.3894 1343.97 48.0668 1340.63 56.4962C1337.28 64.9255 1335.65 73.9375 1335.83 83.0045H1314V-7H1494Z" fill="#425330" fill-opacity="0.52"/>
<path d="M1472.18 83.0045C1471.83 100.851 1464.49 117.846 1451.74 130.342C1439 142.837 1421.86 149.836 1404.01 149.836C1386.16 149.836 1369.02 142.837 1356.27 130.342C1343.53 117.846 1336.19 100.851 1335.83 83.0045H1472.18Z" fill="#425330" fill-opacity="0.52"/>
<path d="M1854 172.995V-7C1854.01 16.8672 1863.49 39.7561 1880.37 56.6341C1897.24 73.512 1920.13 82.9973 1944 83.0045C1920.13 83.0081 1897.24 92.4904 1880.37 109.366C1863.49 126.242 1854.01 149.13 1854 172.995Z" fill="#425330" fill-opacity="0.52"/>
<path d="M1898.81 172.995C1899.02 161.145 1903.87 149.85 1912.32 141.542C1920.77 133.234 1932.15 128.579 1944 128.579C1955.85 128.579 1967.23 133.234 1975.68 141.542C1984.14 149.85 1988.99 161.145 1989.19 172.995H1898.81Z" fill="#425330" fill-opacity="0.52"/>
<path d="M1854 -7V83.0045H1832.19C1832.37 73.9375 1830.74 64.9255 1827.39 56.4962C1824.05 48.0668 1819.06 40.3894 1812.71 33.9133C1806.36 27.4371 1798.78 22.2925 1790.42 18.7803C1782.06 15.2682 1773.08 13.4592 1764.01 13.4592C1754.94 13.4592 1745.97 15.2682 1737.61 18.7803C1729.24 22.2925 1721.67 27.4371 1715.32 33.9133C1708.97 40.3894 1703.98 48.0668 1700.63 56.4962C1697.29 64.9255 1695.66 73.9375 1695.84 83.0045H1674V-7H1854Z" fill="#425330" fill-opacity="0.52"/>
<path d="M1832.19 83.0045C1831.83 100.851 1824.49 117.846 1811.75 130.342C1799 142.837 1781.86 149.836 1764.01 149.836C1746.16 149.836 1729.03 142.837 1716.28 130.342C1703.53 117.846 1696.19 100.851 1695.84 83.0045H1832.19Z" fill="#425330" fill-opacity="0.52"/>
<path d="M1764 263C1752.18 262.998 1740.48 265.325 1729.55 269.848C1718.63 274.37 1708.71 281 1700.35 289.358C1692 297.716 1685.37 307.639 1680.84 318.559C1676.32 329.48 1673.99 341.184 1674 353.005V172.995C1674 196.866 1683.48 219.759 1700.36 236.638C1717.24 253.517 1740.13 263 1764 263Z" fill="#425330" fill-opacity="0.52"/>
<path d="M1854 172.995V353.005C1854 329.135 1844.52 306.244 1827.64 289.366C1810.76 272.487 1787.87 263.004 1764 263C1787.87 262.996 1810.76 253.513 1827.64 236.634C1844.52 219.756 1854 196.865 1854 172.995Z" fill="#425330" fill-opacity="0.52"/>
<path d="M1809.18 172.995C1809.18 184.979 1804.42 196.472 1795.95 204.946C1787.48 213.419 1775.98 218.18 1764 218.18C1752.02 218.18 1740.52 213.419 1732.05 204.946C1723.58 196.472 1718.82 184.979 1718.82 172.995H1809.18Z" fill="#425330" fill-opacity="0.52"/>
<path d="M1854 353.005V263H1875.82C1875.64 272.067 1877.27 281.079 1880.62 289.508C1883.96 297.938 1888.95 305.615 1895.3 312.091C1901.65 318.567 1909.23 323.712 1917.59 327.224C1925.95 330.736 1934.93 332.545 1944 332.545C1953.06 332.545 1962.04 330.736 1970.4 327.224C1978.76 323.712 1986.34 318.567 1992.69 312.091C1999.04 305.615 2004.03 297.938 2007.38 289.508C2010.72 281.079 2012.35 272.067 2012.17 263H2034V353.005H1854Z" fill="#425330" fill-opacity="0.52"/>
<path d="M1875.82 263C1875.64 253.933 1877.27 244.921 1880.62 236.492C1883.96 228.062 1888.95 220.385 1895.3 213.909C1901.65 207.433 1909.23 202.288 1917.59 198.776C1925.95 195.264 1934.93 193.455 1944 193.455C1953.06 193.455 1962.04 195.264 1970.4 198.776C1978.76 202.288 1986.34 207.433 1992.69 213.909C1999.04 220.385 2004.03 228.062 2007.38 236.492C2010.72 244.921 2012.35 253.933 2012.17 263H1875.82Z" fill="#425330" fill-opacity="0.52"/>
<path d="M1404 263C1392.18 263 1380.47 265.328 1369.55 269.851C1358.64 274.375 1348.71 281.005 1340.36 289.363C1332 297.72 1325.37 307.643 1320.85 318.562C1316.33 329.482 1314 341.186 1314 353.005V172.995C1314 196.864 1323.49 219.755 1340.36 236.634C1357.24 253.512 1380.13 262.996 1404 263Z" fill="#425330" fill-opacity="0.52"/>
<path d="M1494 172.995V353.005C1494 329.134 1484.52 306.241 1467.64 289.362C1450.76 272.483 1427.87 263 1404 263C1427.87 262.996 1450.76 253.513 1467.63 236.634C1484.51 219.756 1494 196.865 1494 172.995Z" fill="#425330" fill-opacity="0.52"/>
<path d="M1449.19 172.995C1449.3 178.996 1448.2 184.957 1445.98 190.53C1443.76 196.104 1440.44 201.179 1436.24 205.459C1432.03 209.739 1427.01 213.138 1421.48 215.459C1415.94 217.779 1410 218.975 1404 218.975C1398 218.975 1392.06 217.779 1386.53 215.459C1380.99 213.138 1375.97 209.739 1371.77 205.459C1367.56 201.179 1364.25 196.104 1362.02 190.53C1359.8 184.957 1358.71 178.996 1358.81 172.995H1449.19Z" fill="#425330" fill-opacity="0.52"/>
<path d="M1494 353.005V263H1515.82C1515.64 272.067 1517.27 281.079 1520.61 289.508C1523.96 297.938 1528.95 305.615 1535.3 312.091C1541.65 318.567 1549.22 323.712 1557.58 327.224C1565.94 330.736 1574.92 332.545 1583.99 332.545C1593.06 332.545 1602.04 330.736 1610.4 327.224C1618.76 323.712 1626.34 318.567 1632.68 312.091C1639.03 305.615 1644.03 297.938 1647.37 289.508C1650.72 281.079 1652.35 272.067 1652.17 263H1673.98V353.005H1494Z" fill="#425330" fill-opacity="0.52"/>
<path d="M1515.82 263C1515.64 253.933 1517.27 244.921 1520.61 236.492C1523.96 228.062 1528.95 220.385 1535.3 213.909C1541.65 207.433 1549.22 202.288 1557.58 198.776C1565.94 195.264 1574.92 193.455 1583.99 193.455C1593.06 193.455 1602.04 195.264 1610.4 198.776C1618.76 202.288 1626.34 207.433 1632.68 213.909C1639.03 220.385 1644.03 228.062 1647.37 236.492C1650.72 244.921 1652.35 253.933 1652.17 263H1515.82Z" fill="#425330" fill-opacity="0.52"/>
<path d="M1044 263C1032.18 262.998 1020.48 265.325 1009.56 269.848C998.639 274.37 988.716 281 980.358 289.358C972 297.716 965.37 307.639 960.848 318.559C956.325 329.48 953.998 341.184 954 353.005V172.995C954 196.866 963.483 219.759 980.362 236.638C997.241 253.517 1020.13 263 1044 263Z" fill="#425330" fill-opacity="0.52"/>
<path d="M1134 172.995V353.005C1134 329.136 1124.51 306.245 1107.64 289.366C1090.76 272.488 1067.87 263.004 1044 263C1067.87 262.993 1090.76 253.508 1107.63 236.63C1124.51 219.752 1133.99 196.863 1134 172.995Z" fill="#425330" fill-opacity="0.52"/>
<path d="M1089.19 172.995C1089.29 178.996 1088.2 184.957 1085.98 190.53C1083.75 196.104 1080.44 201.179 1076.23 205.459C1072.03 209.739 1067.01 213.138 1061.47 215.459C1055.94 217.779 1050 218.975 1044 218.975C1038 218.975 1032.06 217.779 1026.52 215.459C1020.99 213.138 1015.97 209.739 1011.76 205.459C1007.56 201.179 1004.24 196.104 1002.02 190.53C999.795 184.957 998.703 178.996 998.806 172.995H1089.19Z" fill="#425330" fill-opacity="0.52"/>
<path d="M1134 353.005V263H1155.81C1156.17 280.846 1163.51 297.842 1176.25 310.337C1189 322.833 1206.14 329.832 1223.99 329.832C1241.84 329.832 1258.97 322.833 1271.72 310.337C1284.47 297.842 1291.81 280.846 1292.16 263H1313.98V353.005H1134Z" fill="#425330" fill-opacity="0.52"/>
<path d="M1155.81 263C1156.17 245.154 1163.51 228.158 1176.25 215.663C1189 203.167 1206.14 196.168 1223.99 196.168C1241.84 196.168 1258.97 203.167 1271.72 215.663C1284.47 228.158 1291.81 245.154 1292.16 263H1155.81Z" fill="#425330" fill-opacity="0.52"/>
<path d="M1224 442.995C1235.82 442.997 1247.52 440.671 1258.44 436.149C1269.36 431.628 1279.28 424.999 1287.64 416.643C1296 408.286 1302.63 398.365 1307.15 387.446C1311.68 376.527 1314 364.823 1314 353.005V533C1314 521.18 1311.68 509.477 1307.15 498.557C1302.63 487.637 1296 477.715 1287.64 469.357C1279.29 460.999 1269.36 454.37 1258.44 449.847C1247.52 445.324 1235.82 442.995 1224 442.995Z" fill="#425330" fill-opacity="0.52"/>
<path d="M1134 533V353.005C1134 376.872 1143.49 399.759 1160.37 416.635C1177.24 433.51 1200.13 442.992 1224 442.995C1200.13 442.999 1177.24 452.483 1160.36 469.361C1143.48 486.239 1134 509.13 1134 533Z" fill="#425330" fill-opacity="0.52"/>
<path d="M1178.82 533C1178.82 521.016 1183.58 509.523 1192.05 501.05C1200.52 492.576 1212.02 487.815 1224 487.815C1235.98 487.815 1247.48 492.576 1255.95 501.05C1264.42 509.523 1269.18 521.016 1269.18 533H1178.82Z" fill="#425330" fill-opacity="0.52"/>
<path d="M1134 353.005V442.995H1112.18C1111.82 425.149 1104.49 408.154 1091.74 395.658C1078.99 383.163 1061.85 376.164 1044 376.164C1026.15 376.164 1009.02 383.163 996.27 395.658C983.523 408.154 976.185 425.149 975.83 442.995H954V353.005H1134Z" fill="#425330" fill-opacity="0.52"/>
<path d="M1112.18 442.995C1112.36 452.063 1110.73 461.074 1107.38 469.504C1104.04 477.933 1099.05 485.611 1092.7 492.087C1086.35 498.563 1078.77 503.708 1070.41 507.22C1062.05 510.732 1053.07 512.541 1044 512.541C1034.94 512.541 1025.96 510.732 1017.6 507.22C1009.24 503.708 1001.66 498.563 995.311 492.087C988.962 485.611 983.969 477.933 980.624 469.504C977.279 461.074 975.649 452.063 975.83 442.995H1112.18Z" fill="#425330" fill-opacity="0.52"/>
<path d="M1584 442.995C1595.82 442.995 1607.52 440.668 1618.44 436.145C1629.36 431.623 1639.28 424.994 1647.64 416.638C1655.99 408.281 1662.62 398.361 1667.15 387.443C1671.67 376.524 1674 364.822 1674 353.005V533C1674 509.132 1664.51 486.241 1647.64 469.362C1630.76 452.483 1607.87 442.999 1584 442.995Z" fill="#425330" fill-opacity="0.52"/>
<path d="M1494 533V353.005C1494.01 376.872 1503.49 399.759 1520.37 416.635C1537.25 433.51 1560.14 442.992 1584 442.995C1560.13 442.999 1537.24 452.483 1520.37 469.361C1503.49 486.239 1494 509.13 1494 533Z" fill="#425330" fill-opacity="0.52"/>
<path d="M1538.81 533C1539.01 521.15 1543.86 509.854 1552.32 501.546C1560.77 493.238 1572.15 488.583 1584 488.583C1595.85 488.583 1607.23 493.238 1615.68 501.546C1624.13 509.854 1628.98 521.15 1629.19 533H1538.81Z" fill="#425330" fill-opacity="0.52"/>
<path d="M1494 353.005V442.995H1472.18C1471.83 425.149 1464.49 408.154 1451.74 395.658C1439 383.163 1421.86 376.164 1404.01 376.164C1386.16 376.164 1369.02 383.163 1356.27 395.658C1343.53 408.154 1336.19 425.149 1335.83 442.995H1314V353.005H1494Z" fill="#425330" fill-opacity="0.52"/>
<path d="M1472.18 442.995C1472.36 452.063 1470.73 461.074 1467.39 469.504C1464.04 477.933 1459.05 485.611 1452.7 492.087C1446.35 498.563 1438.78 503.708 1430.42 507.22C1422.06 510.732 1413.08 512.541 1404.01 512.541C1394.94 512.541 1385.96 510.732 1377.6 507.22C1369.24 503.708 1361.66 498.563 1355.32 492.087C1348.97 485.611 1343.97 477.933 1340.63 469.504C1337.28 461.074 1335.65 452.063 1335.83 442.995H1472.18Z" fill="#425330" fill-opacity="0.52"/>
<path d="M1854 533V353.005C1854.01 376.871 1863.49 399.758 1880.37 416.634C1897.24 433.51 1920.13 442.992 1944 442.995C1920.13 443.003 1897.24 452.488 1880.37 469.366C1863.49 486.244 1854.01 509.133 1854 533Z" fill="#425330" fill-opacity="0.52"/>
<path d="M1898.81 533C1899.02 521.15 1903.87 509.854 1912.32 501.546C1920.77 493.238 1932.15 488.583 1944 488.583C1955.85 488.583 1967.23 493.238 1975.68 501.546C1984.14 509.854 1988.99 521.15 1989.19 533H1898.81Z" fill="#425330" fill-opacity="0.52"/>
<path d="M1854 353.005V442.995H1832.19C1831.83 425.149 1824.49 408.154 1811.75 395.658C1799 383.163 1781.86 376.164 1764.01 376.164C1746.16 376.164 1729.03 383.163 1716.28 395.658C1703.53 408.154 1696.19 425.149 1695.84 442.995H1674V353.005H1854Z" fill="#425330" fill-opacity="0.52"/>
<path d="M1832.19 442.995C1831.83 460.842 1824.49 477.837 1811.75 490.333C1799 502.828 1781.86 509.827 1764.01 509.827C1746.16 509.827 1729.03 502.828 1716.28 490.333C1703.53 477.837 1696.19 460.842 1695.84 442.995H1832.19Z" fill="#425330" fill-opacity="0.52"/>
<path d="M1764 623.005C1752.18 623.003 1740.48 625.329 1729.56 629.851C1718.64 634.372 1708.72 641.001 1700.36 649.357C1692 657.714 1685.37 667.635 1680.85 678.554C1676.32 689.473 1674 701.177 1674 712.996V533C1674 544.82 1676.32 556.523 1680.85 567.443C1685.37 578.363 1692 588.285 1700.36 596.643C1708.71 605.001 1718.64 611.63 1729.56 616.153C1740.48 620.676 1752.18 623.005 1764 623.005Z" fill="#425330" fill-opacity="0.52"/>
<path d="M1854 533V712.996C1854 689.128 1844.51 666.241 1827.63 649.365C1810.76 632.49 1787.87 623.008 1764 623.005C1787.87 623.001 1810.76 613.517 1827.64 596.639C1844.52 579.761 1854 556.87 1854 533Z" fill="#425330" fill-opacity="0.52"/>
<path d="M1809.18 533C1809.18 544.984 1804.42 556.477 1795.95 564.95C1787.48 573.424 1775.98 578.185 1764 578.185C1752.02 578.185 1740.52 573.424 1732.05 564.95C1723.58 556.477 1718.82 544.984 1718.82 533H1809.18Z" fill="#425330" fill-opacity="0.52"/>
<path d="M1854 712.996V623.005H1875.82C1876.18 640.851 1883.51 657.846 1896.26 670.342C1909.01 682.837 1926.15 689.836 1944 689.836C1961.85 689.836 1978.98 682.837 1991.73 670.342C2004.48 657.846 2011.82 640.851 2012.17 623.005H2034V712.996H1854Z" fill="#425330" fill-opacity="0.52"/>
<path d="M1875.82 623.005C1875.64 613.938 1877.27 604.926 1880.62 596.496C1883.96 588.067 1888.95 580.389 1895.3 573.913C1901.65 567.437 1909.23 562.293 1917.59 558.78C1925.95 555.268 1934.93 553.459 1944 553.459C1953.06 553.459 1962.04 555.268 1970.4 558.78C1978.76 562.293 1986.34 567.437 1992.69 573.913C1999.04 580.389 2004.03 588.067 2007.38 596.496C2010.72 604.926 2012.35 613.938 2012.17 623.005H1875.82Z" fill="#425330" fill-opacity="0.52"/>
<path d="M1404 623.005C1380.13 623.005 1357.24 632.486 1340.36 649.362C1323.49 666.239 1314 689.128 1314 712.996V533C1314 556.868 1323.49 579.759 1340.36 596.638C1357.24 613.517 1380.13 623.001 1404 623.005Z" fill="#425330" fill-opacity="0.52"/>
<path d="M1494 533V712.996C1494 689.127 1484.51 666.238 1467.63 649.361C1450.75 632.485 1427.86 623.005 1404 623.005C1427.87 623.001 1450.76 613.517 1467.63 596.639C1484.51 579.761 1494 556.87 1494 533Z" fill="#425330" fill-opacity="0.52"/>
<path d="M1449.19 533C1448.99 544.85 1444.14 556.146 1435.68 564.454C1427.23 572.762 1415.85 577.417 1404 577.417C1392.15 577.417 1380.77 572.762 1372.32 564.454C1363.87 556.146 1359.02 544.85 1358.81 533H1449.19Z" fill="#425330" fill-opacity="0.52"/>
<path d="M1494 712.996V623.005H1515.82C1516.17 640.851 1523.51 657.846 1536.26 670.342C1549 682.837 1566.14 689.836 1583.99 689.836C1601.84 689.836 1618.98 682.837 1631.73 670.342C1644.47 657.846 1651.81 640.851 1652.17 623.005H1673.98V712.996H1494Z" fill="#425330" fill-opacity="0.52"/>
<path d="M1515.82 623.005C1515.64 613.938 1517.27 604.926 1520.61 596.496C1523.96 588.067 1528.95 580.389 1535.3 573.913C1541.65 567.437 1549.22 562.293 1557.58 558.78C1565.94 555.268 1574.92 553.459 1583.99 553.459C1593.06 553.459 1602.04 555.268 1610.4 558.78C1618.76 562.293 1626.34 567.437 1632.68 573.913C1639.03 580.389 1644.03 588.067 1647.37 596.496C1650.72 604.926 1652.35 613.938 1652.17 623.005H1515.82Z" fill="#425330" fill-opacity="0.52"/>
<path d="M1044 623.005C1032.19 623.003 1020.48 625.329 1009.56 629.851C998.643 634.372 988.72 641.001 980.363 649.357C972.005 657.714 965.375 667.635 960.851 678.554C956.328 689.473 954 701.177 954 712.996V533C954 544.82 956.328 556.523 960.851 567.443C965.374 578.363 972.004 588.285 980.362 596.643C988.719 605.001 998.641 611.63 1009.56 616.153C1020.48 620.676 1032.18 623.005 1044 623.005Z" fill="#425330" fill-opacity="0.52"/>
<path d="M1134 533V712.996C1133.99 689.13 1124.51 666.242 1107.63 649.366C1090.76 632.49 1067.87 623.008 1044 623.005C1067.87 622.997 1090.76 613.512 1107.63 596.634C1124.51 579.756 1133.99 556.867 1134 533Z" fill="#425330" fill-opacity="0.52"/>
<path d="M1089.19 533C1088.98 544.85 1084.13 556.146 1075.68 564.454C1067.23 572.762 1055.85 577.417 1044 577.417C1032.15 577.417 1020.77 572.762 1012.32 564.454C1003.86 556.146 999.011 544.85 998.806 533H1089.19Z" fill="#425330" fill-opacity="0.52"/>
<path d="M1134 712.996V623.005H1155.81C1156.17 640.851 1163.51 657.846 1176.25 670.342C1189 682.837 1206.14 689.836 1223.99 689.836C1241.84 689.836 1258.97 682.837 1271.72 670.342C1284.47 657.846 1291.81 640.851 1292.16 623.005H1313.98V712.996H1134Z" fill="#425330" fill-opacity="0.52"/>
<path d="M1155.81 623.005C1156.17 605.158 1163.51 588.163 1176.25 575.667C1189 563.172 1206.14 556.173 1223.99 556.173C1241.84 556.173 1258.97 563.172 1271.72 575.667C1284.47 588.163 1291.81 605.158 1292.16 623.005H1155.81Z" fill="#425330" fill-opacity="0.52"/>
<path d="M1224 803C1235.82 803.002 1247.52 800.675 1258.45 796.152C1269.37 791.63 1279.29 785 1287.65 776.642C1296 768.284 1302.63 758.361 1307.16 747.441C1311.68 736.52 1314.01 724.816 1314 712.996V893.005C1314 881.185 1311.68 869.481 1307.15 858.561C1302.63 847.641 1296 837.719 1287.64 829.362C1279.29 821.004 1269.36 814.374 1258.44 809.851C1247.52 805.328 1235.82 803 1224 803Z" fill="#425330" fill-opacity="0.52"/>
<path d="M1134 893.005V712.996C1134 736.865 1143.48 759.756 1160.36 776.634C1177.24 793.513 1200.13 802.996 1224 803C1200.13 803.004 1177.24 812.487 1160.36 829.366C1143.48 846.244 1134 869.135 1134 893.005Z" fill="#425330" fill-opacity="0.52"/>
<path d="M1178.82 893.004C1178.82 881.021 1183.58 869.528 1192.05 861.054C1200.52 852.58 1212.02 847.82 1224 847.82C1235.98 847.82 1247.48 852.58 1255.95 861.054C1264.42 869.528 1269.18 881.021 1269.18 893.004H1178.82Z" fill="#425330" fill-opacity="0.52"/>
<path d="M1134 712.996V803H1112.18C1112.36 793.933 1110.73 784.921 1107.38 776.492C1104.04 768.062 1099.05 760.385 1092.7 753.909C1086.35 747.433 1078.77 742.288 1070.41 738.776C1062.05 735.264 1053.07 733.455 1044 733.455C1034.94 733.455 1025.96 735.264 1017.6 738.776C1009.24 742.288 1001.66 747.433 995.311 753.909C988.962 760.385 983.969 768.062 980.624 776.492C977.279 784.921 975.649 793.933 975.83 803H954V712.996H1134Z" fill="#425330" fill-opacity="0.52"/>
<path d="M1112.18 803C1112.36 812.067 1110.73 821.079 1107.38 829.508C1104.04 837.938 1099.05 845.615 1092.7 852.091C1086.35 858.567 1078.77 863.712 1070.41 867.224C1062.05 870.736 1053.07 872.545 1044 872.545C1034.94 872.545 1025.96 870.736 1017.6 867.224C1009.24 863.712 1001.66 858.567 995.311 852.091C988.962 845.615 983.969 837.938 980.624 829.508C977.279 821.079 975.649 812.067 975.83 803H1112.18Z" fill="#425330" fill-opacity="0.52"/>
<path d="M1584 803C1595.82 803 1607.53 800.672 1618.45 796.149C1629.36 791.625 1639.29 784.995 1647.64 776.638C1656 768.28 1662.63 758.358 1667.15 747.438C1671.67 736.518 1674 724.814 1674 712.996V893.005C1674 869.136 1664.51 846.245 1647.64 829.366C1630.76 812.488 1607.87 803.004 1584 803Z" fill="#425330" fill-opacity="0.52"/>
<path d="M1494 893.005V712.996C1494 736.865 1503.49 759.756 1520.37 776.634C1537.24 793.513 1560.13 802.996 1584 803C1560.13 803.004 1537.24 812.487 1520.37 829.366C1503.49 846.244 1494 869.135 1494 893.005Z" fill="#425330" fill-opacity="0.52"/>
<path d="M1538.81 893.004C1538.7 887.004 1539.8 881.043 1542.02 875.47C1544.24 869.896 1547.56 864.821 1551.76 860.541C1555.97 856.261 1560.99 852.862 1566.52 850.541C1572.06 848.221 1578 847.025 1584 847.025C1590 847.025 1595.94 848.221 1601.47 850.541C1607.01 852.862 1612.03 856.261 1616.23 860.541C1620.44 864.821 1623.75 869.896 1625.98 875.47C1628.2 881.043 1629.29 887.004 1629.19 893.004H1538.81Z" fill="#425330" fill-opacity="0.52"/>
<path d="M1494 712.996V803H1472.18C1472.36 793.933 1470.73 784.921 1467.39 776.492C1464.04 768.062 1459.05 760.385 1452.7 753.909C1446.35 747.433 1438.78 742.288 1430.42 738.776C1422.06 735.264 1413.08 733.455 1404.01 733.455C1394.94 733.455 1385.96 735.264 1377.6 738.776C1369.24 742.288 1361.66 747.433 1355.32 753.909C1348.97 760.385 1343.97 768.062 1340.63 776.492C1337.28 784.921 1335.65 793.933 1335.83 803H1314V712.996H1494Z" fill="#425330" fill-opacity="0.52"/>
<path d="M1472.18 803C1472.36 812.067 1470.73 821.079 1467.39 829.508C1464.04 837.938 1459.05 845.615 1452.7 852.091C1446.35 858.567 1438.78 863.712 1430.42 867.224C1422.06 870.736 1413.08 872.545 1404.01 872.545C1394.94 872.545 1385.96 870.736 1377.6 867.224C1369.24 863.712 1361.66 858.567 1355.32 852.091C1348.97 845.615 1343.97 837.938 1340.63 829.508C1337.28 821.079 1335.65 812.067 1335.83 803H1472.18Z" fill="#425330" fill-opacity="0.52"/>
<path d="M1854 893.005V712.996C1854 736.864 1863.49 759.755 1880.36 776.634C1897.24 793.512 1920.13 802.996 1944 803C1920.13 803.007 1897.24 812.492 1880.37 829.37C1863.49 846.248 1854.01 869.137 1854 893.005Z" fill="#425330" fill-opacity="0.52"/>
<path d="M1898.81 893.004C1898.71 887.004 1899.8 881.043 1902.02 875.47C1904.25 869.896 1907.56 864.821 1911.77 860.541C1915.97 856.261 1920.99 852.862 1926.53 850.541C1932.06 848.221 1938 847.025 1944 847.025C1950 847.025 1955.94 848.221 1961.48 850.541C1967.01 852.862 1972.03 856.261 1976.24 860.541C1980.44 864.821 1983.76 869.896 1985.98 875.47C1988.2 881.043 1989.3 887.004 1989.19 893.004H1898.81Z" fill="#425330" fill-opacity="0.52"/>
<path d="M1854 712.996V803H1832.19C1831.83 785.154 1824.49 768.158 1811.75 755.663C1799 743.167 1781.86 736.168 1764.01 736.168C1746.16 736.168 1729.03 743.167 1716.28 755.663C1703.53 768.158 1696.19 785.154 1695.84 803H1674V712.996H1854Z" fill="#425330" fill-opacity="0.52"/>
<path d="M1832.19 803C1831.83 820.846 1824.49 837.842 1811.75 850.337C1799 862.833 1781.86 869.832 1764.01 869.832C1746.16 869.832 1729.03 862.833 1716.28 850.337C1703.53 837.842 1696.19 820.846 1695.84 803H1832.19Z" fill="#425330" fill-opacity="0.52"/>
<path d="M1764 982.996C1740.13 982.996 1717.24 992.478 1700.36 1009.36C1683.48 1026.24 1674 1049.13 1674 1073V893.004C1674 904.823 1676.32 916.527 1680.85 927.446C1685.37 938.365 1692 948.286 1700.36 956.642C1708.72 964.999 1718.64 971.628 1729.56 976.149C1740.48 980.671 1752.18 982.997 1764 982.996Z" fill="#425330" fill-opacity="0.52"/>
<path d="M1854 893.004V1073C1854 1049.13 1844.52 1026.24 1827.64 1009.36C1810.76 992.483 1787.87 982.999 1764 982.996C1787.87 982.992 1810.76 973.51 1827.63 956.635C1844.51 939.759 1854 916.872 1854 893.004Z" fill="#425330" fill-opacity="0.52"/>
<path d="M1809.18 893.004C1809.18 904.988 1804.42 916.481 1795.95 924.955C1787.48 933.428 1775.98 938.189 1764 938.189C1752.02 938.189 1740.52 933.428 1732.05 924.955C1723.58 916.481 1718.82 904.988 1718.82 893.004H1809.18Z" fill="#425330" fill-opacity="0.52"/>
<path d="M1854 1073V982.996H1875.82C1875.64 992.063 1877.27 1001.07 1880.62 1009.5C1883.96 1017.93 1888.95 1025.61 1895.3 1032.09C1901.65 1038.56 1909.23 1043.71 1917.59 1047.22C1925.95 1050.73 1934.93 1052.54 1944 1052.54C1953.06 1052.54 1962.04 1050.73 1970.4 1047.22C1978.76 1043.71 1986.34 1038.56 1992.69 1032.09C1999.04 1025.61 2004.03 1017.93 2007.38 1009.5C2010.72 1001.07 2012.35 992.063 2012.17 982.996H2034V1073H1854Z" fill="#425330" fill-opacity="0.52"/>
<path d="M1875.82 982.996C1876.18 965.149 1883.51 948.154 1896.26 935.658C1909.01 923.163 1926.15 916.164 1944 916.164C1961.85 916.164 1978.98 923.163 1991.73 935.658C2004.48 948.154 2011.82 965.149 2012.17 982.996H1875.82Z" fill="#425330" fill-opacity="0.52"/>
<path d="M1404 982.996C1380.13 982.999 1357.24 992.483 1340.36 1009.36C1323.49 1026.24 1314 1049.13 1314 1073V893.004C1314 904.822 1316.33 916.524 1320.85 927.443C1325.38 938.361 1332.01 948.281 1340.36 956.638C1348.72 964.994 1358.64 971.623 1369.56 976.145C1380.48 980.668 1392.18 982.996 1404 982.996Z" fill="#425330" fill-opacity="0.52"/>
<path d="M1494 893.004V1073C1494 1049.13 1484.51 1026.24 1467.63 1009.36C1450.76 992.483 1427.87 982.999 1404 982.996C1427.86 982.996 1450.75 973.515 1467.63 956.639C1484.51 939.762 1494 916.873 1494 893.004Z" fill="#425330" fill-opacity="0.52"/>
<path d="M1449.19 893.004C1448.99 904.855 1444.14 916.15 1435.68 924.458C1427.23 932.766 1415.85 937.421 1404 937.421C1392.15 937.421 1380.77 932.766 1372.32 924.458C1363.87 916.15 1359.02 904.855 1358.81 893.004H1449.19Z" fill="#425330" fill-opacity="0.52"/>
<path d="M1494 1073V982.996H1515.82C1515.64 992.063 1517.27 1001.07 1520.61 1009.5C1523.96 1017.93 1528.95 1025.61 1535.3 1032.09C1541.65 1038.56 1549.22 1043.71 1557.58 1047.22C1565.94 1050.73 1574.92 1052.54 1583.99 1052.54C1593.06 1052.54 1602.04 1050.73 1610.4 1047.22C1618.76 1043.71 1626.34 1038.56 1632.68 1032.09C1639.03 1025.61 1644.03 1017.93 1647.37 1009.5C1650.72 1001.07 1652.35 992.063 1652.17 982.996H1673.98V1073H1494Z" fill="#425330" fill-opacity="0.52"/>
<path d="M1515.82 982.996C1516.17 965.149 1523.51 948.154 1536.26 935.658C1549 923.163 1566.14 916.164 1583.99 916.164C1601.84 916.164 1618.98 923.163 1631.73 935.658C1644.47 948.154 1651.81 965.149 1652.17 982.996H1515.82Z" fill="#425330" fill-opacity="0.52"/>
<path d="M1044 982.996C1020.13 982.996 997.241 992.478 980.362 1009.36C963.483 1026.24 954 1049.13 954 1073V893.004C954 904.823 956.328 916.527 960.851 927.446C965.375 938.365 972.005 948.286 980.363 956.642C988.72 964.999 998.643 971.628 1009.56 976.149C1020.48 980.671 1032.19 982.997 1044 982.996Z" fill="#425330" fill-opacity="0.52"/>
<path d="M1134 893.004V1073C1133.99 1049.13 1124.51 1026.24 1107.63 1009.37C1090.76 992.488 1067.87 983.003 1044 982.996C1067.87 982.992 1090.76 973.51 1107.63 956.634C1124.51 939.758 1133.99 916.87 1134 893.004Z" fill="#425330" fill-opacity="0.52"/>
<path d="M1089.19 893.004C1088.98 904.855 1084.13 916.15 1075.68 924.458C1067.23 932.766 1055.85 937.421 1044 937.421C1032.15 937.421 1020.77 932.766 1012.32 924.458C1003.86 916.15 999.011 904.855 998.806 893.004H1089.19Z" fill="#425330" fill-opacity="0.52"/>
<path d="M1134 1073V982.996H1155.81C1156.17 1000.84 1163.51 1017.84 1176.25 1030.33C1189 1042.83 1206.14 1049.83 1223.99 1049.83C1241.84 1049.83 1258.97 1042.83 1271.72 1030.33C1284.47 1017.84 1291.81 1000.84 1292.16 982.996H1313.98V1073H1134Z" fill="#425330" fill-opacity="0.52"/>
<path d="M1155.81 982.996C1156.17 965.149 1163.51 948.154 1176.25 935.658C1189 923.163 1206.14 916.164 1223.99 916.164C1241.84 916.164 1258.97 923.163 1271.72 935.658C1284.47 948.154 1291.81 965.149 1292.16 982.996H1155.81Z" fill="#425330" fill-opacity="0.52"/>
</g>
</g>
<defs>
<filter id="filter0_b_2_195" x="-136" y="-17" width="2180" height="1107" filterUnits="userSpaceOnUse" color-interpolation-filters="sRGB">
<feFlood flood-opacity="0" result="BackgroundImageFix"/>
<feGaussianBlur in="BackgroundImageFix" stdDeviation="5"/>
<feComposite in2="SourceAlpha" operator="in" result="effect1_backgroundBlur_2_195"/>
<feBlend mode="normal" in="SourceGraphic" in2="effect1_backgroundBlur_2_195" result="shape"/>
</filter>
<clipPath id="clip0_2_195">
<rect width="1080" height="1080" fill="white" transform="translate(-126)"/>
</clipPath>
<clipPath id="clip1_2_195">
<rect width="1080" height="1080" fill="white" transform="translate(954 -7)"/>
</clipPath>
</defs>
</svg>
